<?xml version="1.0" encoding="utf-8"?>
<!-- Generator: Adobe Illustrator 21.1.0, SVG Export Plug-In . SVG Version: 6.00 Build 0)  -->
<svg version="1.1" id="Capa_1" xmlns="http://www.w3.org/2000/svg" xmlns:xlink="http://www.w3.org/1999/xlink" x="0px" y="0px"
	 viewBox="0 0 99.5 99.5" style="enable-background:new 0 0 99.5 99.5;" xml:space="preserve">
<style type="text/css">
	.st0{fill:#E9BD3E;}
</style>
<g>
	<g>
		<path class="st0" d="M86,92.1H11.8c-3.5,0-6.3-2.8-6.3-6.3v-9c0-3.5,2.8-6.3,6.3-6.3H86c3.5,0,6.3,2.8,6.3,6.3v9
			C92.4,89.2,89.5,92.1,86,92.1L86,92.1z M11.8,75.8c-0.5,0-0.9,0.4-0.9,0.9v9c0,0.5,0.4,0.9,0.9,0.9H86c0.5,0,0.9-0.4,0.9-0.9v-9
			c0-0.5-0.4-0.9-0.9-0.9H11.8z M11.8,75.8"/>
		<path class="st0" d="M71.6,74.9c-1.5,0-2.7-1.2-2.7-2.7V55.9c0-11-8.9-19.9-19.9-19.9S29,44.9,29,55.9v16.3c0,1.5-1.2,2.7-2.7,2.7
			s-2.7-1.2-2.7-2.7V55.9c0-14,11.4-25.3,25.3-25.3s25.3,11.4,25.3,25.3v16.3C74.3,73.7,73.1,74.9,71.6,74.9L71.6,74.9z M71.6,74.9"
			/>
		<path class="st0" d="M37.2,58.6c-1.5,0-2.7-1.2-2.7-2.7c0-8,6.5-14.5,14.5-14.5c1.5,0,2.7,1.2,2.7,2.7s-1.2,2.7-2.7,2.7
			c-5,0-9,4.1-9,9C39.9,57.4,38.7,58.6,37.2,58.6L37.2,58.6z M37.2,58.6"/>
		<path class="st0" d="M48.9,23.3c-1.5,0-2.7-1.2-2.7-2.7V7.9c0-1.5,1.2-2.7,2.7-2.7c1.5,0,2.7,1.2,2.7,2.7v12.7
			C51.7,22.1,50.4,23.3,48.9,23.3L48.9,23.3z M48.9,23.3"/>
		<path class="st0" d="M69.8,30.5c-0.7,0-1.4-0.3-1.9-0.8c-1.1-1.1-1.1-2.8,0-3.8l9-9c1.1-1.1,2.8-1.1,3.8,0c1.1,1.1,1.1,2.8,0,3.8
			l-9,9C71.1,30.3,70.4,30.5,69.8,30.5L69.8,30.5z M69.8,30.5"/>
		<path class="st0" d="M28.1,30.5c-0.7,0-1.4-0.3-1.9-0.8l-9-9c-1.1-1.1-1.1-2.8,0-3.8c1.1-1.1,2.8-1.1,3.8,0l9,9
			c1.1,1.1,1.1,2.8,0,3.8C29.5,30.3,28.8,30.5,28.1,30.5L28.1,30.5z M28.1,30.5"/>
		<path class="st0" d="M13.6,51.4H8.2c-1.5,0-2.7-1.2-2.7-2.7c0-1.5,1.2-2.7,2.7-2.7h5.4c1.5,0,2.7,1.2,2.7,2.7
			C16.4,50.1,15.1,51.4,13.6,51.4L13.6,51.4z M13.6,51.4"/>
		<path class="st0" d="M89.7,51.4h-5.4c-1.5,0-2.7-1.2-2.7-2.7c0-1.5,1.2-2.7,2.7-2.7h5.4c1.5,0,2.7,1.2,2.7,2.7
			C92.4,50.1,91.2,51.4,89.7,51.4L89.7,51.4z M89.7,51.4"/>
	</g>
</g>
</svg>
