<?xml version="1.0" encoding="utf-8"?>
<!-- Generator: Adobe Illustrator 21.1.0, SVG Export Plug-In . SVG Version: 6.00 Build 0)  -->
<svg version="1.1" id="Capa_1" xmlns="http://www.w3.org/2000/svg" xmlns:xlink="http://www.w3.org/1999/xlink" x="0px" y="0px"
	 viewBox="0 0 45.8 41.5" style="enable-background:new 0 0 45.8 41.5;" xml:space="preserve">
<style type="text/css">
	.st0{fill:#EAC54D;}
</style>
<g>
	<g>
		<g>
			<g>
				<path class="st0" d="M44.5,7.2c0.1-0.7-0.2-1.4-0.6-2c-0.5-0.5-1.2-0.9-1.9-0.9l-6.9,0c0-0.3,0.1-0.5,0.1-0.8
					c0-0.6-0.5-1.2-1.1-1.2l-11.3,0l-11.3,0c-0.6,0-1.2,0.6-1.1,1.2c0,0.3,0.1,0.5,0.1,0.8l-6.9,0c-0.7,0-1.4,0.3-1.9,0.9
					C1.2,5.8,0.9,6.5,1,7.2c0.4,3.8,3,16,18.1,16.5c1.5,2.1,2.5,4.5,2.5,7.1c0,1-0.7,1.8-1.7,1.9c-5.8,0.7-9.6,2.4-9.6,2.4l12.4,0
					l12.4,0c0,0-3.7-1.7-9.6-2.4c-1-0.1-1.7-0.9-1.7-1.9c0-2.6,0.9-5,2.5-7.1C41.5,23.2,44,11,44.5,7.2z M3.6,7.1l4.9,0
					c1.3,0,2.4,1,2.6,2.2c1.1,5.7,3.2,9.1,5.2,11.3C6.3,19,4.2,10.7,3.6,7.1z M37,7l4.7-0.1c-0.4,3.8-2.5,12.1-12.5,13.7
					c2-2.1,4.1-5.6,5.2-11.3C34.7,8,35.7,7.1,37,7z"/>
				<polygon class="st0" points="38.2,40.4 7.3,40.4 10.2,36 35.3,36 				"/>
			</g>
		</g>
	</g>
</g>
</svg>
