<?xml version="1.0" encoding="utf-8"?>
<!-- Generator: Adobe Illustrator 21.1.0, SVG Export Plug-In . SVG Version: 6.00 Build 0)  -->
<svg version="1.1" id="Capa_1" xmlns="http://www.w3.org/2000/svg" xmlns:xlink="http://www.w3.org/1999/xlink" x="0px" y="0px"
	 viewBox="0 0 278.7 276.8" style="enable-background:new 0 0 278.7 276.8;" xml:space="preserve">
<style type="text/css">
	.st0{fill:#FF7C8B;}
	.st1{fill:#FF5368;}
	.st2{fill:#FFF9EB;}
	.st3{fill:#4FE267;}
	.st4{fill:#00B04B;}
</style>
<g>
	<circle class="st0" cx="80.6" cy="196.9" r="74.7"/>
	<path class="st1" d="M117.5,132c6.2,10.9,9.7,23.5,9.7,36.9c0,41.3-33.5,74.7-74.7,74.7c-13.4,0-26-3.5-36.9-9.7
		c1.4,2.4,2.8,4.7,4.4,6.9L6.4,266.1c-1.8,3.3,1.8,6.9,5.1,5.1l25.3-13.7c12.3,8.9,27.4,14.2,43.8,14.2c41.3,0,74.7-33.5,74.7-74.7
		C155.3,169.1,140.1,144.8,117.5,132z"/>
	<path class="st2" d="M107.4,223.9l-2.8-2.8c3.3-5.3,5.2-11.6,5.2-18.3c0-19.2-15.6-34.9-34.9-34.9S40,183.5,40,202.7
		s15.6,34.9,34.9,34.9c6.7,0,13-1.9,18.3-5.2l2.8,2.8c1.6,1.6,3.6,2.4,5.7,2.4s4.1-0.8,5.7-2.4C110.5,232.1,110.5,227,107.4,223.9z
		 M74.8,221.5c-10.4,0-18.8-8.4-18.8-18.8s8.4-18.8,18.8-18.8s18.8,8.4,18.8,18.8c0,2.2-0.4,4.3-1.1,6.3l-1.3-1.3
		c-3.1-3.1-8.2-3.1-11.4,0c-3.1,3.1-3.1,8.2,0,11.4l1.3,1.3C79.2,221.1,77.1,221.5,74.8,221.5z"/>
	<circle class="st3" cx="179.1" cy="98.5" r="93.5"/>
	<path class="st4" d="M254.9,153.3c11.2-15.4,17.7-34.3,17.7-54.8c0-33-17.1-62-42.9-78.7c9.4,14.6,14.9,31.9,14.9,50.6
		c0,51.6-41.9,93.5-93.5,93.5c-18.6,0-36-5.5-50.6-14.9c16.6,25.8,45.7,42.9,78.7,42.9c20.5,0,39.4-6.6,54.8-17.7l31.7,17.2
		c4.1,2.2,8.7-2.3,6.4-6.4L254.9,153.3z"/>
	<path class="st2" d="M221.9,135.5l-32.2-85.9c-1.2-3.1-4.2-5.2-7.5-5.2c-3.4,0-6.4,2.1-7.5,5.2l-32.2,85.9
		c-1.6,4.2,0.5,8.8,4.7,10.4c4.2,1.6,8.8-0.5,10.4-4.7l1.6-4.2h46.2l1.6,4.2c1.2,3.2,4.3,5.2,7.5,5.2c0.9,0,1.9-0.2,2.8-0.5
		C221.4,144.3,223.5,139.7,221.9,135.5z M165.1,120.9l17.1-45.5l17.1,45.5H165.1z"/>
</g>
</svg>
