<svg id="Capa_1" data-name="Capa 1" xmlns="http://www.w3.org/2000/svg" viewBox="0 0 45.77 41.46"><defs><style>.cls-1{fill:#fff;}</style></defs><title>0ranking</title><path class="cls-1" d="M44.46,7.2a2.54,2.54,0,0,0-.63-2,2.57,2.57,0,0,0-1.92-.85H35c0-.28.06-.52.08-.8A1.13,1.13,0,0,0,34,2.38H11.49a1.13,1.13,0,0,0-1.11,1.19c0,.28.06.52.08.8H3.58a2.57,2.57,0,0,0-1.92.85A2.54,2.54,0,0,0,1,7.2c.42,3.8,3,16,18.09,16.46a11.88,11.88,0,0,1,2.46,7.09,1.9,1.9,0,0,1-1.7,1.87,35,35,0,0,0-9.56,2.44H35.18a35,35,0,0,0-9.56-2.44,1.9,1.9,0,0,1-1.7-1.87,11.88,11.88,0,0,1,2.45-7.09C41.47,23.18,44,11,44.46,7.2ZM3.58,7.14H8.45a2.71,2.71,0,0,1,2.64,2.24c1.11,5.69,3.18,9.14,5.19,11.25C6.29,19,4.17,10.71,3.58,7.14ZM37,7l4.72-.14C41.3,10.69,39.21,19,29.22,20.63c2-2.12,4.1-5.6,5.2-11.33A2.73,2.73,0,0,1,37,7Z"/><polygon class="cls-1" points="38.19 40.44 7.31 40.44 10.16 35.99 35.33 35.99 38.19 40.44"/></svg>